<svg width="88" height="88" viewBox="0 0 88 88" fill="none" xmlns="http://www.w3.org/2000/svg">
<path d="M65.3922 63.1435L70.5029 60.6774C72.4727 64.7403 75.1168 68.3419 78.3287 71.4823C84.3622 63.9419 88 54.3968 88 44C88 33.621 84.3799 24.0935 78.3819 16.571C75.2232 19.6403 72.5969 23.1532 70.6449 27.1274L65.5519 24.6258C67.8233 20.0129 70.8756 15.9323 74.5667 12.3839C66.6521 4.7371 55.8984 0 44.0089 0C32.1371 0 21.3833 4.71935 13.4688 12.3661C17.1422 15.8968 20.1944 19.9774 22.4658 24.5726L17.3729 27.0742C15.4209 23.1177 12.8123 19.6048 9.65356 16.5355C3.62008 24.0758 0 33.6032 0 44C0 54.3968 3.62008 63.9242 9.65356 71.4468C12.8832 68.3064 15.5451 64.7048 17.5148 60.6242L22.6255 63.0903C20.3364 67.8274 17.2486 72.0145 13.4866 75.6339C21.3833 83.2806 32.1371 88 44.0089 88C55.8629 88 66.5989 83.2984 74.5134 75.6693C70.7691 72.05 67.6814 67.8806 65.3922 63.1435ZM24.8792 57.4661L19.4668 55.7274C22.1109 47.4952 21.7205 39.0855 19.3604 31.9532L24.755 30.179C27.4168 38.2694 27.9492 47.9032 24.8792 57.4661ZM63.2628 30.25L68.6574 32.0242C66.315 39.1387 65.9068 47.5484 68.5509 55.7984L63.1385 57.5371C60.0686 47.9564 60.6009 38.3226 63.2628 30.25Z" fill="black"/>
</svg>
