<svg width="92" height="99" viewBox="0 0 92 99" fill="none" xmlns="http://www.w3.org/2000/svg">
<path d="M46.0012 75.381C40.4327 68.3826 37.1586 62.2481 36.0732 56.9998C31.0981 37.5535 60.9176 37.5535 55.9425 56.9998C54.7401 62.3586 51.4661 68.4908 46.0145 75.381H46.0012ZM76.4804 91.5635C67.201 95.6096 58.0208 89.1592 50.16 80.4106C73.0828 51.6676 60.333 36.2144 46.0012 36.2144C33.8846 36.2144 27.2129 46.4922 29.8339 58.423C31.3628 64.8734 35.4003 72.21 41.8425 80.4106C34.6656 88.3769 28.4837 92.054 23.0564 92.5468C12.0252 94.1887 3.39657 83.4734 7.32588 72.4177C10.6573 63.7641 31.974 21.3313 32.8896 19.0375C36.3644 12.3926 38.5287 6.3532 45.9902 6.3532C53.1252 6.3532 55.5653 12.0855 59.3093 19.5833C67.2517 35.189 79.022 58.803 84.6457 72.4177C87.5513 79.7255 84.3434 88.1714 76.4804 91.5635ZM86.8497 61.4835C58.4157 0.86846 56.8405 0 46.0012 0C35.9584 0 31.6894 6.99847 27.3232 16.0852C3.90179 63.0017 1.63158 69.651 1.43522 70.23C-4.12891 85.5506 7.3347 98.9995 21.2097 98.9995C25.9995 98.9995 34.5817 97.6603 46.0012 85.2103C58.9474 99.3044 68.3416 98.9995 70.7927 98.9995C84.6678 99.0105 96.1314 85.5506 90.5628 70.23C90.5672 69.3703 86.8519 61.6338 86.8519 61.4835H86.8497Z" fill="black"/>
</svg>
