<svg width="77" height="77" viewBox="0 0 77 77" fill="none" xmlns="http://www.w3.org/2000/svg">
<path d="M1.68439 46.8377C1.96111 46.3323 2.31001 46.2481 2.85142 46.5369C4.10267 47.2106 5.32986 47.9084 6.60517 48.5461C11.4859 50.9799 16.6285 52.8488 21.933 54.1166C24.4412 54.7217 26.9792 55.1956 29.5367 55.5362C33.3242 56.0453 37.146 56.2545 40.9664 56.1619C43.0599 56.1137 45.1533 55.9453 47.2347 55.7047C53.9926 54.9169 60.6062 53.1835 66.8817 50.5553C67.2306 50.4109 67.5916 50.3147 67.9766 50.4109C68.7827 50.6275 69.0594 51.4937 68.4699 52.0833C68.1113 52.4129 67.7249 52.7108 67.3149 52.9736C63.6213 55.5122 59.5908 57.353 55.3317 58.7366C52.3825 59.687 49.3607 60.3952 46.2963 60.8541C44.1767 61.1787 42.0391 61.3716 39.8956 61.4316C39.7948 61.4376 39.6943 61.4497 39.5949 61.4677H37.0563C36.9568 61.4497 36.8564 61.4376 36.7555 61.4316C36.3224 61.4075 35.8892 61.3955 35.4681 61.3834C33.436 61.2913 31.4112 61.0784 29.4044 60.7458C26.1091 60.2087 22.8709 59.3669 19.7313 58.2312C13.2729 55.9021 7.32485 52.348 2.21376 47.7641C1.9972 47.5716 1.85282 47.3069 1.68439 47.0783V46.8377ZM20.6938 15.5323L20.1764 15.6045C18.5221 15.8087 16.9478 16.4343 15.6045 17.4212C15.3158 17.6258 15.0511 17.8423 14.7503 18.0709C14.7248 18.0179 14.7085 17.961 14.7022 17.9025C14.6541 17.5777 14.606 17.2408 14.5458 16.9159C14.4616 16.3625 14.1849 16.1219 13.6314 16.1219H12.2478C11.4177 16.1219 11.2613 16.2783 11.2613 17.1084V42.2898C11.2613 42.4102 11.2613 42.5305 11.2733 42.6508C11.2974 43.0117 11.5139 43.2403 11.8628 43.2523C12.705 43.2644 13.5592 43.2644 14.4014 43.2523C14.7503 43.2523 14.9669 43.0117 15.003 42.6508C15.015 42.5305 15.015 42.4102 15.015 42.2898V33.5792C15.1474 33.6875 15.2195 33.7477 15.2797 33.8078C17.4333 35.6005 19.9117 36.19 22.6188 35.6606C25.0731 35.1794 26.7816 33.6755 27.8885 31.4617C28.7306 29.7894 29.0795 28.0087 29.1277 26.1559C29.1878 24.0986 28.9833 22.0773 28.1531 20.1644C27.1305 17.8062 25.4341 16.2542 22.8714 15.7248C22.4864 15.6406 22.0894 15.6045 21.6924 15.5444C21.3555 15.5323 21.0306 15.5323 20.6938 15.5323ZM14.9909 20.5734C14.9841 20.4947 14.9997 20.4156 15.0359 20.3454C15.0721 20.2751 15.1274 20.2165 15.1955 20.1764C16.8438 19.0334 18.6605 18.4319 20.6817 18.5883C22.4744 18.7206 23.9422 19.5989 24.7122 21.7044C25.1814 22.9917 25.3017 24.3272 25.3017 25.6747C25.3017 26.9259 25.2055 28.1531 24.8205 29.3562C24.0024 31.9189 22.1255 32.8934 19.6952 32.7852C18.0108 32.713 16.543 32.0633 15.1955 31.1128C15.1283 31.0717 15.0736 31.013 15.0376 30.943C15.0015 30.8729 14.9854 30.7943 14.9909 30.7158C15.003 29.0194 14.9909 27.335 14.9909 25.6386C14.9909 23.9422 15.003 22.2698 14.9909 20.5734ZM39.7392 15.5323C39.6189 15.5444 39.4986 15.5684 39.3903 15.5805C38.2179 15.6299 37.0532 15.7951 35.9133 16.0737C35.1794 16.2662 34.4695 16.5309 33.7597 16.7716C33.3266 16.9159 33.11 17.2287 33.122 17.698C33.1341 18.095 33.11 18.492 33.122 18.8891C33.1341 19.4666 33.3747 19.623 33.9402 19.4786C34.8786 19.238 35.817 18.9733 36.7675 18.7928C38.2474 18.5161 39.7392 18.3958 41.2431 18.6244C42.0252 18.7447 42.7591 18.9733 43.2644 19.635C43.7095 20.2125 43.878 20.8983 43.902 21.6081C43.9381 22.6067 43.9261 23.6053 43.9381 24.6039C43.9352 24.6607 43.9272 24.717 43.9141 24.7723C43.8539 24.7603 43.8058 24.7723 43.7577 24.7603C42.4946 24.4489 41.2061 24.2516 39.9077 24.1708C38.5481 24.0986 37.2006 24.1828 35.9013 24.64C34.3492 25.1814 33.098 26.1198 32.3641 27.6358C31.7986 28.8148 31.7144 30.0661 31.8949 31.3294C32.1355 33.0137 32.9777 34.3131 34.4695 35.1433C35.9013 35.9373 37.4533 36.0336 39.0294 35.793C40.8461 35.5162 42.4583 34.7462 43.878 33.5792C43.936 33.5268 44.0008 33.4823 44.0705 33.4469C44.1427 33.9041 44.2028 34.3372 44.287 34.7703C44.3592 35.1433 44.5878 35.3839 44.9367 35.3959C45.5864 35.408 46.2481 35.408 46.8978 35.3959C47.0486 35.3948 47.193 35.3352 47.3007 35.2297C47.4084 35.1242 47.471 34.9811 47.4753 34.8305C47.4853 34.7185 47.4894 34.606 47.4874 34.4936V21.7405C47.4932 21.221 47.457 20.702 47.3791 20.1884C47.1505 18.6364 46.4888 17.3611 45.0931 16.5309C44.287 16.0497 43.3967 15.8091 42.4703 15.6767C42.0372 15.6166 41.6041 15.5805 41.171 15.5203C40.7017 15.5323 40.2205 15.5323 39.7392 15.5323ZM43.9502 30.8962C43.9547 30.967 43.9404 31.0377 43.9087 31.1011C43.877 31.1645 43.829 31.2184 43.7697 31.2572C42.4222 32.2317 40.9424 32.8814 39.27 33.0498C38.5842 33.122 37.8985 33.098 37.2488 32.8333C36.8917 32.7027 36.5705 32.4898 36.3113 32.2118C36.0521 31.9337 35.8621 31.5984 35.7569 31.2331C35.5184 30.474 35.5142 29.6606 35.7449 28.8991C36.0456 27.9005 36.7555 27.335 37.718 27.0222C38.684 26.7309 39.6995 26.6408 40.7017 26.7575C41.7124 26.8417 42.6989 27.0342 43.7095 27.1666C43.902 27.1906 43.9622 27.2869 43.9622 27.4794C43.9502 28.0569 43.9622 28.6223 43.9622 29.1998C43.9622 29.7773 43.9381 30.3308 43.9502 30.8962ZM75.2194 46.4647C75.0991 45.8631 74.6419 45.6345 74.1245 45.4661C73.3044 45.2082 72.456 45.0506 71.598 44.9969C70.0227 44.8624 68.4366 44.9393 66.8817 45.2255C65.1613 45.5503 63.525 46.1037 62.0692 47.1023C61.8959 47.2138 61.7449 47.3566 61.6241 47.5234C61.5819 47.5954 61.5549 47.6751 61.5445 47.7579C61.5342 47.8406 61.5408 47.9246 61.5639 48.0047C61.612 48.1852 61.8166 48.2333 61.997 48.2212C62.0854 48.2232 62.1739 48.2192 62.2617 48.2092C63.2002 48.113 64.1266 48.0047 65.065 47.9084C66.4366 47.7761 67.8202 47.6919 69.1917 47.8002C69.7788 47.8489 70.3594 47.9578 70.9242 48.125C71.5378 48.2934 71.8145 48.7506 71.8386 49.3762C71.8867 50.3387 71.6702 51.2652 71.4175 52.1795C70.9242 54.0323 70.2144 55.825 69.5166 57.6056C69.4657 57.7221 69.4255 57.8429 69.3963 57.9666C69.3361 58.3155 69.5406 58.5441 69.8895 58.4598C70.1049 58.4114 70.3039 58.3078 70.467 58.1591C71.0099 57.6545 71.5202 57.116 71.995 56.5469C73.535 54.5737 74.4374 52.2998 74.9667 49.8575C75.063 49.4244 75.1352 48.9792 75.2194 48.5461V46.4647ZM59.3261 31.6422C57.7741 27.347 56.222 23.0479 54.67 18.7447C54.4294 18.0589 54.1647 17.3852 53.912 16.7114C53.7797 16.3625 53.527 16.1339 53.142 16.1339C52.2277 16.1219 51.3133 16.1098 50.3869 16.1219C50.0861 16.1219 49.9417 16.3625 50.0019 16.6633C50.0598 16.9132 50.1362 17.1585 50.2305 17.3972C52.5886 23.2323 54.9588 29.0675 57.341 34.9027C57.5455 35.3959 57.5936 35.817 57.365 36.3223C56.968 37.2006 56.6552 38.127 56.2461 39.0053C55.8852 39.7873 55.2836 40.3769 54.4174 40.6055C53.8132 40.7633 53.185 40.8082 52.5645 40.7378C52.2638 40.7137 51.963 40.6416 51.6622 40.6175C51.2531 40.5934 51.0486 40.7739 51.0366 41.195C51.0245 41.596 51.0245 41.9931 51.0366 42.3861C51.0486 43.0478 51.2772 43.3486 51.9269 43.4569C52.5973 43.5903 53.2771 43.6708 53.9602 43.6975C56.0175 43.7456 57.6538 42.9155 58.7125 41.1228C59.1387 40.4149 59.5087 39.6747 59.8194 38.9091C62.6708 31.7144 65.5021 24.5117 68.3135 17.3009C68.4012 17.0879 68.4658 16.8661 68.506 16.6392C68.5541 16.3023 68.3977 16.1098 68.0608 16.1098C67.2667 16.0978 66.4606 16.1098 65.6666 16.1098C65.4645 16.0957 65.2635 16.1496 65.0956 16.263C64.9277 16.3764 64.8025 16.5427 64.7402 16.7355C64.68 16.9039 64.6078 17.0603 64.5477 17.2287L60.3608 29.26C60.06 30.1262 59.7472 31.0045 59.4344 31.9309C59.3863 31.7986 59.3622 31.7264 59.3261 31.6422Z" fill="black"/>
</svg>
